PathFileType  4	(X/Y/Z) C:\Users\antoi\Documents\MyRepositories\mobilecap\ResultsAnalysis
DataRate	CameraRate	NumFrames	NumMarkers	Units	OrigDataRate	OrigDataStartFrame	OrigNumFrames
100.0	100.0	4	51	mm	100.0	38	150
Frame#	Time	r_knee			r_shank_antsup			r_ankle			r_calc			r_5meta			r_toe			L_knee			L_shank_antsup			L_ankle			L_calc			L_5meta			L_toe			r_sh2			r_sh3			r_sh4			L_sh2			L_sh3			r_thigh1			r_thigh2			r_thigh3			r_thigh4			r_thigh5			L_thigh1			L_thigh2			L_thigh3			L_thigh4			r.ASIS			r.PSIS			L.ASIS			L.PSIS			C7			R_Shoulder			L_Shoulder			R_Sternum			L_Sternum			R_humerus			R_elbow_med			R_elbow_lat			R_forearm			R_wrist_radius			R_wrist_ulna			L_humerus			L_elbow_med			L_elbow_lat			L_forearm			L_wrist_radius			L_wrist_ulna			R_HJC			L_HJC			R_HJC_reg			L_HJC_reg			
		X1	Y1	Z1	X2	Y2	Z2	X3	Y3	Z3	X4	Y4	Z4	X5	Y5	Z5	X6	Y6	Z6	X7	Y7	Z7	X8	Y8	Z8	X9	Y9	Z9	X10	Y10	Z10	X11	Y11	Z11	X12	Y12	Z12	X13	Y13	Z13	X14	Y14	Z14	X15	Y15	Z15	X16	Y16	Z16	X17	Y17	Z17	X18	Y18	Z18	X19	Y19	Z19	X20	Y20	Z20	X21	Y21	Z21	X22	Y22	Z22	X23	Y23	Z23	X24	Y24	Z24	X25	Y25	Z25	X26	Y26	Z26	X27	Y27	Z27	X28	Y28	Z28	X29	Y29	Z29	X30	Y30	Z30	X31	Y31	Z31	X32	Y32	Z32	X33	Y33	Z33	X34	Y34	Z34	X35	Y35	Z35	X36	Y36	Z36	X37	Y37	Z37	X38	Y38	Z38	X39	Y39	Z39	X40	Y40	Z40	X41	Y41	Z41	X42	Y42	Z42	X43	Y43	Z43	X44	Y44	Z44	X45	Y45	Z45	X46	Y46	Z46	X47	Y47	Z47	X48	Y48	Z48	X49	Y49	Z49	X50	Y50	Z50	X51	Y51	Z51	

38	0.37000000	258.59131	484.07259	-76.50263	289.74014	432.36520	-89.86728	147.57604	96.41886	-127.25589	87.70199	62.20054	-178.16709	284.92988	34.08348	-88.06130	316.71570	57.82479	-146.17992	427.25463	519.16576	-374.19828	439.74697	432.99479	-389.47973	322.12621	134.49019	-336.39894	264.91047	105.05424	-274.77160	426.91413	52.98865	-374.45344	480.03540	71.99948	-331.72714	267.62623	321.60292	-108.71881	223.91422	436.63245	-49.58074	201.07790	323.12991	-54.64878	355.07256	463.97968	-386.41926	324.46458	346.52709	-379.30626	370.53629	773.21425	-128.71741	368.22672	660.15759	-125.25055	353.73580	640.68341	-62.61228	311.52866	775.41258	-32.96718	307.88695	660.12906	-33.54280	346.44162	829.29411	-390.45273	404.49221	700.22095	-402.48683	242.81208	783.35617	-388.83139	297.91501	658.60431	-379.90694	362.40488	952.55027	-92.35368	168.41808	998.09712	-159.45621	356.15093	949.73021	-326.70694	161.45475	995.96035	-257.29068	250.18122	1460.92659	-183.78420	319.46966	1408.11666	-27.97710	302.02705	1414.94756	-353.20309	352.80068	1354.84739	-178.79710	353.41680	1353.76627	-217.03128	333.72700	1169.21181	43.77302	270.07617	1078.00210	25.67905	313.53658	1079.18240	71.56957	398.05597	961.72345	60.99197	453.29298	876.27228	25.58322	425.03827	860.69109	61.43594	236.98978	1196.37954	-448.05795	167.51583	1106.42317	-407.57167	188.85727	1109.04962	-463.39534	223.45728	970.64682	-492.28317	242.40839	861.74012	-482.19506	204.05869	862.55613	-503.76274	282.42187	875.36585	-124.00009	264.67084	883.44676	-313.67346	289.74130	888.25597	-118.30421	278.75837	884.88575	-272.61568	
39	0.38000000	261.88618	483.57308	-75.95758	292.36241	431.52489	-89.34279	147.74549	96.69154	-127.19375	87.78052	62.41978	-178.23777	285.07831	34.02018	-88.05963	316.84107	57.65175	-146.17481	438.57821	519.10853	-373.18420	455.56388	433.82083	-388.75519	356.14177	128.40990	-336.89472	300.86419	95.48653	-275.37146	465.39913	53.47769	-375.77657	517.34305	74.85454	-332.79244	269.59654	321.01767	-108.34967	226.61358	436.31341	-48.96267	202.96379	322.98186	-54.26368	369.27416	459.65458	-385.59559	345.95057	340.55232	-378.95880	378.67605	771.65233	-127.85129	375.07050	658.54583	-124.53853	359.61911	639.18637	-62.10298	318.82909	774.37714	-32.28619	313.91876	659.12062	-33.19487	355.88522	828.75587	-390.36966	414.33920	699.82044	-401.77668	252.37011	782.44096	-387.96724	307.99445	657.90123	-378.59276	371.59635	951.60671	-91.59639	177.96421	997.33289	-158.89900	365.74292	948.87183	-326.16045	171.07021	995.17163	-256.70576	260.15870	1460.22907	-185.15841	330.78764	1408.49318	-29.63662	310.88011	1413.15447	-354.66186	362.89699	1354.12065	-180.10618	363.26994	1352.78207	-218.34733	347.11704	1170.42784	43.91754	283.84284	1078.58110	27.41764	327.79932	1080.48615	72.58503	413.31539	963.67412	61.36747	468.73261	878.56018	25.64940	441.38402	862.82207	61.98395	244.57110	1194.30125	-447.87736	175.37484	1104.67238	-406.32354	196.03703	1107.12905	-462.42596	229.58611	968.58878	-491.62381	248.39166	859.61502	-481.74688	209.57521	860.55757	-502.64426	291.74209	874.47689	-123.40755	274.19042	882.64792	-313.09543	299.00876	887.41679	-117.61530	288.12252	884.00383	-272.06330	
40	0.39000000	265.16032	483.07756	-75.39002	294.93299	430.69919	-88.79220	147.95460	96.93567	-127.15472	87.84738	62.66794	-178.32057	285.19805	33.91651	-88.05500	316.98679	57.47562	-146.17678	449.48911	518.61420	-372.30615	471.21927	434.45740	-388.05797	390.18702	123.29947	-337.49585	336.83576	87.15361	-276.30413	503.56891	55.11142	-376.76704	554.18353	78.76244	-333.40440	271.53879	320.47934	-107.93774	229.26333	436.00144	-48.33994	204.78674	322.85087	-53.88330	383.55937	455.07713	-385.23246	367.61811	334.70359	-379.03746	386.98784	770.02780	-126.94792	381.78603	656.82549	-123.82498	365.56843	637.65189	-61.57448	326.28685	773.24699	-31.61565	320.04623	658.08313	-32.85100	365.25359	827.82648	-390.34528	423.82477	698.91524	-401.15455	261.80915	781.34616	-387.01717	317.73563	656.92178	-377.22585	381.01807	950.59272	-90.86127	187.60055	996.43636	-158.34170	375.39333	947.82083	-325.58770	180.79745	994.19393	-256.12955	270.16122	1459.36261	-186.65256	342.05463	1408.69957	-31.41208	319.77159	1411.21947	-356.23829	373.04153	1353.26814	-181.52048	373.15784	1351.68319	-219.76175	360.40633	1171.49439	44.03207	297.65354	1078.98666	28.97401	341.97136	1081.67708	73.43047	428.44804	965.44082	61.67769	483.97165	880.63543	25.71193	457.50287	864.81795	62.54473	252.28193	1192.07219	-447.76558	183.39994	1102.73941	-405.11354	203.36970	1105.02530	-461.49387	235.91606	966.33714	-490.90592	254.56840	857.27777	-481.19389	215.26760	858.37620	-501.44844	301.23168	873.49561	-122.76523	283.81403	881.64183	-312.46595	308.41409	886.48821	-116.91855	297.66166	882.94399	-271.47638	
41	0.40000000	268.38005	482.61443	-74.77315	297.44447	429.92433	-88.18305	148.21388	97.18532	-127.13901	87.91675	62.95578	-178.42063	285.30056	33.78634	-88.05626	317.15877	57.30602	-146.17959	460.08888	517.71589	-371.60730	486.75880	434.94284	-387.40044	424.08725	119.22056	-338.18145	372.59566	80.06009	-277.53543	541.28295	57.89094	-377.27635	590.37165	83.76665	-333.40640	273.40455	319.99212	-107.46369	231.82628	435.71878	-47.71617	206.51646	322.75946	-53.50204	397.98784	450.33418	-385.36694	389.41703	329.09838	-379.57562	395.47702	768.32898	-126.01992	388.42415	655.02464	-123.09940	371.55459	636.07969	-61.01441	333.90276	772.02901	-30.93938	326.26276	657.02369	-32.49046	374.62844	826.56266	-390.34696	433.05901	697.55677	-400.63942	271.21509	780.12988	-385.98665	327.22269	655.71749	-375.85759	390.63354	949.49912	-90.14482	197.33332	995.39056	-157.77750	385.12711	946.60069	-324.97588	190.63626	993.00970	-255.55232	280.20512	1458.33175	-188.26498	353.28116	1408.74940	-33.29719	328.73149	1409.15106	-357.91949	383.22666	1352.29566	-183.04602	383.07717	1350.47071	-221.27837	373.57415	1172.41190	44.08974	311.42524	1079.24477	30.33856	356.06458	1082.75883	74.10002	443.43860	967.02611	61.91397	499.01154	882.47182	25.75974	473.37199	866.65402	63.08056	260.12308	1189.70975	-447.73393	191.58192	1100.64843	-403.95157	210.86178	1102.75667	-460.60466	242.45399	963.90242	-490.12553	260.91369	854.74856	-480.52491	221.13885	856.03199	-500.17450	310.89047	872.40704	-122.07640	293.56261	880.43865	-311.78954	317.96021	885.48230	-116.20493	307.36874	881.71735	-270.83702	
